<svg xmlns="http://www.w3.org/2000/svg" xmlns:xlink="http://www.w3.org/1999/xlink" width="20" height="20" viewBox="0 0 20 20">
    <defs>
        <path id="a" d="M12.908 2.5h-5.61c-3.3 0-6.19 2.466-6.446 5.755A6.257 6.257 0 0 0 5 14.642v3.117a.417.417 0 0 0 .664.335L9.864 15h2.835c3.175 0 6.008-2.275 6.414-5.423A6.258 6.258 0 0 0 12.908 2.5m0 1.667c1.32 0 2.579.57 3.452 1.563a4.543 4.543 0 0 1 1.1 3.633c-.292 2.264-2.338 3.97-4.76 3.97H9.315l-.441.325-2.208 1.627v-1.821l-1.11-.393a4.602 4.602 0 0 1-3.043-4.687c.183-2.365 2.284-4.217 4.783-4.217h5.611"/>
    </defs>
    <g fill="none" fill-rule="evenodd">
        <mask id="b" fill="#fff">
            <use xlink:href="#a"/>
        </mask>
        <use fill="#1D2228" xlink:href="#a"/>
        <g fill="#1D2228" mask="url(#b)">
            <path d="M0 0h20v20H0z"/>
        </g>
    </g>
</svg>
